<svg xmlns="http://www.w3.org/2000/svg" xmlns:xlink="http://www.w3.org/1999/xlink" viewBox="0,0,256,256" width="128px" height="128px" fill-rule="nonzero"><g fill="#c80000" fill-rule="nonzero" stroke="none" stroke-width="1" stroke-linecap="butt" stroke-linejoin="miter" stroke-miterlimit="10" stroke-dasharray="" stroke-dashoffset="0" font-family="none" font-weight="none" font-size="none" text-anchor="none" style="mix-blend-mode: normal"><g transform="scale(4,4)"><path d="M0,25c7,2 11,7 9,14c10,-3 21,0 23,9c2,-9 13,-12 23,-9c-2,-7 2,-12 9,-14h-22c-1,5 -4,6 -7.5,6l-0.00195,-0.02734c-0.0011,-0.22895 -0.02403,-0.457 -0.06836,-0.67969l-0.42969,-4.29297l-1.10156,2.20313c-0.28653,-0.1334 -0.5911,-0.20226 -0.89844,-0.20312c-0.30744,0.00149 -0.61201,0.07101 -0.89844,0.20508l-1.10156,-2.20508l-0.43359,4.33008c-0.03961,0.20831 -0.06056,0.42111 -0.0625,0.63477l-0.00391,0.03516c-3.5,0 -6.5,-1 -7.5,-6z"></path></g></g></svg>